<svg width="20" height="14" viewBox="0 0 20 14" fill="none" xmlns="http://www.w3.org/2000/svg">
    <path fill-rule="evenodd" clip-rule="evenodd" d="M2.40217 6.75766C2.33429 6.84423 2.27247 6.92534 2.21683 7C2.27247 7.07466 2.33429 7.15577 2.40217 7.24234C2.77882 7.72271 3.33617 8.36364 4.05499 9.00259C5.50333 10.29 7.52581 11.5 10 11.5C12.4742 11.5 14.4967 10.29 15.945 9.00259C16.6638 8.36364 17.2212 7.72271 17.5978 7.24234C17.6657 7.15577 17.7275 7.07466 17.7832 7C17.7275 6.92534 17.6657 6.84423 17.5978 6.75766C17.2212 6.27729 16.6638 5.63636 15.945 4.99741C14.4967 3.71 12.4742 2.5 10 2.5C7.52581 2.5 5.50333 3.71 4.05499 4.99741C3.33617 5.63636 2.77882 6.27729 2.40217 6.75766ZM19.8519 6.4763C19.8521 6.47665 19.8523 6.47698 19 7C19.8523 7.52302 19.8521 7.52335 19.8519 7.5237L19.8514 7.52451L19.8502 7.5265L19.8468 7.532L19.8362 7.5489C19.8275 7.56274 19.8154 7.58169 19.8 7.60541C19.7693 7.65285 19.7253 7.71943 19.6683 7.8024C19.5545 7.96825 19.3882 8.20027 19.1717 8.47641C18.7398 9.02729 18.1018 9.76136 17.2737 10.4974C15.6283 11.96 13.1508 13.5 10 13.5C6.84919 13.5 4.37167 11.96 2.72626 10.4974C1.89821 9.76136 1.26024 9.02729 0.828296 8.47641C0.611779 8.20027 0.445536 7.96825 0.331652 7.8024C0.274673 7.71943 0.230688 7.65285 0.199962 7.60541C0.184596 7.58169 0.172535 7.56274 0.163812 7.5489L0.153232 7.532L0.149825 7.5265L0.148594 7.52451L0.148096 7.5237C0.14788 7.52335 0.147677 7.52302 1 7C0.147677 6.47698 0.14788 6.47665 0.148096 6.4763L0.148594 6.47549L0.149825 6.4735L0.153232 6.468L0.163812 6.4511C0.172535 6.43726 0.184596 6.41831 0.199962 6.39459C0.230688 6.34715 0.274673 6.28057 0.331652 6.1976C0.445536 6.03175 0.611779 5.79973 0.828296 5.52359C1.26024 4.97271 1.89821 4.23864 2.72626 3.50259C4.37167 2.04 6.84919 0.5 10 0.5C13.1508 0.5 15.6283 2.04 17.2737 3.50259C18.1018 4.23864 18.7398 4.97271 19.1717 5.52359C19.3882 5.79973 19.5545 6.03175 19.6683 6.1976C19.7253 6.28057 19.7693 6.34715 19.8 6.39459C19.8154 6.41831 19.8275 6.43726 19.8362 6.4511L19.8468 6.468L19.8502 6.4735L19.8514 6.47549L19.8519 6.4763ZM19 7L19.8523 7.52302C20.0492 7.20214 20.0492 6.79786 19.8523 6.47698L19 7ZM1 7L0.147677 6.47698C-0.0492258 6.79786 -0.0492258 7.20214 0.147677 7.52302L1 7ZM10 10C11.6569 10 13 8.65685 13 7C13 5.34315 11.6569 4 10 4C8.34315 4 7 5.34315 7 7C7 8.65685 8.34315 10 10 10Z"/>
</svg>
