<svg width="8" height="23" viewBox="0 0 8 23" fill="none" xmlns="http://www.w3.org/2000/svg">
    <path d="M6.56266 21.7035C5.88691 22.3793 5.0674 22.7172 4.10413 22.7172C3.14085 22.7172 2.32135 22.3793 1.6456 21.7035C0.969849 21.0278 0.631958 20.2083 0.631958 19.245C0.631958 18.2817 0.969849 17.4622 1.6456 16.7865C2.32135 16.1109 3.14085 15.7731 4.10413 15.7731C5.0674 15.7731 5.88691 16.1109 6.56266 16.7865C7.23841 17.4622 7.5763 18.2817 7.5763 19.245C7.5763 20.2083 7.23841 21.0278 6.56266 21.7035ZM6.56266 6.28406C5.88691 6.95981 5.0674 7.29769 4.10413 7.29769C3.14085 7.29769 2.32135 6.95981 1.6456 6.28406C0.969849 5.60831 0.631958 4.7888 0.631958 3.82553C0.631958 2.8479 0.969849 2.02838 1.6456 1.36699C2.32135 0.691237 3.14085 0.353363 4.10413 0.353363C5.0674 0.353363 5.88691 0.691237 6.56266 1.36699C7.23841 2.04274 7.5763 2.86225 7.5763 3.82553C7.5763 4.7888 7.23841 5.60831 6.56266 6.28406Z" fill="black"/>
</svg>
