<svg width="364" height="56" viewBox="0 0 364 56" fill="none" xmlns="http://www.w3.org/2000/svg">
    <g filter="url(#filter0_dd_1_57)">
        <rect x="3" y="3" width="358" height="48" rx="20" fill="#FB3F1C"/>
        <path fill-rule="evenodd" clip-rule="evenodd" d="M107.585 37H111V17H106.051C101.072 17 98.4596 19.6147 98.4596 23.4764C98.4574 26.5214 99.912 28.3907 102.449 30.2356L98 37H101.689L106.64 29.4217L104.916 28.2473C102.837 26.8099 101.819 25.6929 101.819 23.2704C101.819 21.1404 103.282 19.7036 106.064 19.7036H107.585V37Z" fill="white"/>
        <path d="M126.43 32.5H122.172V21.2266H126.445C128.375 21.2266 129.68 22.3516 129.68 24.0391C129.68 25.2109 128.82 26.3047 127.734 26.5V26.5625C129.266 26.7578 130.25 27.8359 130.25 29.3359C130.25 31.3203 128.828 32.5 126.43 32.5ZM123.578 22.4688V26.0859H125.688C127.352 26.0859 128.258 25.4219 128.258 24.2031C128.258 23.0859 127.492 22.4688 126.125 22.4688H123.578ZM123.578 31.2578H126.219C127.914 31.2578 128.805 30.5703 128.805 29.2656C128.805 27.9609 127.883 27.2969 126.086 27.2969H123.578V31.2578ZM135.156 32.6406C132.906 32.6406 131.391 31.0234 131.391 28.4375C131.391 25.8438 132.906 24.2344 135.156 24.2344C137.398 24.2344 138.914 25.8438 138.914 28.4375C138.914 31.0234 137.398 32.6406 135.156 32.6406ZM135.156 31.4453C136.594 31.4453 137.531 30.3516 137.531 28.4375C137.531 26.5234 136.594 25.4297 135.156 25.4297C133.719 25.4297 132.773 26.5234 132.773 28.4375C132.773 30.3516 133.719 31.4453 135.156 31.4453ZM141.766 32.5H140.422V24.375H141.766V30.4219H141.828L145.891 24.375H147.234V32.5H145.891V26.4531H145.828L141.766 32.5ZM141.461 20.8594H142.461C142.461 21.7656 143.047 22.4766 143.977 22.4766C144.906 22.4766 145.492 21.7656 145.492 20.8594H146.492C146.492 22.2969 145.469 23.2812 143.977 23.2812C142.484 23.2812 141.461 22.2969 141.461 20.8594ZM155.086 24.375V25.4922H152.461V32.5H151.117V25.4922H148.492V24.375H155.086ZM157.688 32.5H156.344V24.375H157.688V30.4219H157.75L161.812 24.375H163.156V32.5H161.812V26.4531H161.75L157.688 32.5ZM174.539 32.5H173.195V28.9922H173.078C172.641 29.3672 171.992 29.625 171.109 29.625C169.164 29.625 168.141 28.4453 168.141 26.7109V24.375H169.484V26.6953C169.484 27.7578 170.055 28.4375 171.148 28.4375C172.156 28.4375 172.82 28.0625 173.195 27.6406V24.375H174.539V32.5ZM179.719 25.4141C178.445 25.4141 177.555 26.3906 177.469 27.7422H181.883C181.852 26.3828 181 25.4141 179.719 25.4141ZM181.852 30.1719H183.188C182.953 31.5938 181.578 32.6406 179.805 32.6406C177.477 32.6406 176.062 31.0234 176.062 28.4688C176.062 25.9453 177.5 24.2344 179.742 24.2344C181.938 24.2344 183.289 25.8281 183.289 28.2891V28.8047H177.461V28.8828C177.461 30.4375 178.375 31.4609 179.836 31.4609C180.867 31.4609 181.625 30.9375 181.852 30.1719ZM188.75 24.2344C190.82 24.2344 192.227 25.8906 192.227 28.4375C192.227 30.9844 190.828 32.6406 188.781 32.6406C187.617 32.6406 186.68 32.0703 186.195 31.1797H186.164V35.2109H184.805V24.375H186.094V25.75H186.125C186.625 24.8359 187.57 24.2344 188.75 24.2344ZM188.484 31.4453C189.93 31.4453 190.836 30.2812 190.836 28.4375C190.836 26.6016 189.93 25.4297 188.484 25.4297C187.094 25.4297 186.156 26.6328 186.156 28.4375C186.156 30.25 187.094 31.4453 188.484 31.4453ZM197 25.4141C195.727 25.4141 194.836 26.3906 194.75 27.7422H199.164C199.133 26.3828 198.281 25.4141 197 25.4141ZM199.133 30.1719H200.469C200.234 31.5938 198.859 32.6406 197.086 32.6406C194.758 32.6406 193.344 31.0234 193.344 28.4688C193.344 25.9453 194.781 24.2344 197.023 24.2344C199.219 24.2344 200.57 25.8281 200.57 28.2891V28.8047H194.742V28.8828C194.742 30.4375 195.656 31.4609 197.117 31.4609C198.148 31.4609 198.906 30.9375 199.133 30.1719ZM204.789 32.6406C203.008 32.6406 201.719 31.7656 201.578 30.3906H202.953C203.109 31.1016 203.781 31.5156 204.789 31.5156C205.969 31.5156 206.625 30.9531 206.625 30.1641C206.625 29.25 206.016 28.8359 204.789 28.8359H203.57V27.7266H204.789C205.82 27.7266 206.352 27.3359 206.352 26.5391C206.352 25.8594 205.867 25.3672 204.82 25.3672C203.859 25.3672 203.188 25.7812 203.078 26.4297H201.758C201.93 25.0859 203.102 24.2344 204.82 24.2344C206.672 24.2344 207.68 25.125 207.68 26.4297C207.68 27.2578 207.148 27.9922 206.336 28.1797V28.2422C207.406 28.4766 207.961 29.1641 207.961 30.1016C207.961 31.6172 206.695 32.6406 204.789 32.6406ZM219.242 26.8203V22.7031H216.945C215.461 22.7031 214.602 23.4531 214.602 24.7578C214.602 26.0703 215.461 26.8203 216.945 26.8203H219.242ZM217.203 28.2578L214.25 32.5H212.242L215.383 28.0312C213.836 27.6328 212.805 26.3984 212.805 24.75C212.805 22.6641 214.336 21.2266 216.594 21.2266H220.984V32.5H219.242V28.2578H217.203ZM228.398 32.5V28.9219H224.68V32.5H223V24.2812H224.68V27.5938H228.398V24.2812H230.078V32.5H228.398ZM237.375 31.1641V25.6172H234.516L234.289 28.7578C234.227 29.7266 234.023 30.5703 233.648 31.1016V31.1641H237.375ZM232.703 34.6562H231.148V31.1641H231.812C232.414 30.7891 232.688 29.7969 232.766 28.6875L233.062 24.2812H239.055V31.1641H240.328V34.6562H238.766V32.5H232.703V34.6562ZM244.914 25.4922C243.734 25.4922 242.906 26.3906 242.82 27.6328H246.93C246.891 26.375 246.094 25.4922 244.914 25.4922ZM246.922 30.0859H248.523C248.289 31.5859 246.867 32.6562 244.984 32.6562C242.57 32.6562 241.109 31.0234 241.109 28.4297C241.109 25.8516 242.594 24.1328 244.914 24.1328C247.195 24.1328 248.617 25.7422 248.617 28.2344V28.8125H242.812V28.9141C242.812 30.3438 243.672 31.2891 245.023 31.2891C245.984 31.2891 246.695 30.8047 246.922 30.0859ZM253.398 28.1406L257.18 32.5H255.062L251.805 28.7109H251.742V32.5H250.062V24.2812H251.742V27.7969H251.805L255.023 24.2812H257.039L253.398 28.1406ZM265.047 26.9141H263.422C263.203 26.1562 262.578 25.5391 261.531 25.5391C260.227 25.5391 259.375 26.6562 259.375 28.3906C259.375 30.1719 260.234 31.2422 261.547 31.2422C262.547 31.2422 263.203 30.7422 263.438 29.8828H265.062C264.82 31.5312 263.469 32.6562 261.531 32.6562C259.18 32.6562 257.664 31.0234 257.664 28.3906C257.664 25.8125 259.18 24.1328 261.516 24.1328C263.547 24.1328 264.812 25.3984 265.047 26.9141Z" fill="white"/>
    </g>
    <defs>
        <filter id="filter0_dd_1_57" x="0" y="0" width="364" height="56" filterUnits="userSpaceOnUse" color-interpolation-filters="sRGB">
            <feFlood flood-opacity="0" result="BackgroundImageFix"/>
            <feColorMatrix in="SourceAlpha" type="matrix" values="0 0 0 0 0 0 0 0 0 0 0 0 0 0 0 0 0 0 127 0" result="hardAlpha"/>
            <feOffset dy="2"/>
            <feGaussianBlur stdDeviation="1.5"/>
            <feColorMatrix type="matrix" values="0 0 0 0 0 0 0 0 0 0 0 0 0 0 0 0 0 0 0.168 0"/>
            <feBlend mode="normal" in2="BackgroundImageFix" result="effect1_dropShadow_1_57"/>
            <feColorMatrix in="SourceAlpha" type="matrix" values="0 0 0 0 0 0 0 0 0 0 0 0 0 0 0 0 0 0 127 0" result="hardAlpha"/>
            <feOffset/>
            <feGaussianBlur stdDeviation="1.5"/>
            <feColorMatrix type="matrix" values="0 0 0 0 0 0 0 0 0 0 0 0 0 0 0 0 0 0 0.084 0"/>
            <feBlend mode="normal" in2="effect1_dropShadow_1_57" result="effect2_dropShadow_1_57"/>
            <feBlend mode="normal" in="SourceGraphic" in2="effect2_dropShadow_1_57" result="shape"/>
        </filter>
    </defs>
</svg>
