<svg width="364" height="56" viewBox="0 0 364 56" fill="none" xmlns="http://www.w3.org/2000/svg">
    <g filter="url(#filter0_dd_1_54)">
        <rect x="3" y="3" width="358" height="48" rx="20" fill="#0077FF"/>
        <path d="M93.0718 34.5C84.8719 34.5 80.1949 28.8694 80 19.5H84.1074C84.2423 26.3769 87.2704 29.2898 89.6689 29.8904V19.5H93.5366V25.4309C95.9051 25.1757 98.3933 22.473 99.2328 19.5H103.1C102.456 23.1637 99.7575 25.8664 97.8387 26.9775C99.7575 27.8784 102.831 30.2357 104 34.5H99.7425C98.8281 31.6471 96.5497 29.4399 93.5366 29.1396V34.5H93.0718Z" fill="white"/>
        <path d="M122.711 32.5H118.453V21.2266H122.727C124.656 21.2266 125.961 22.3516 125.961 24.0391C125.961 25.2109 125.102 26.3047 124.016 26.5V26.5625C125.547 26.7578 126.531 27.8359 126.531 29.3359C126.531 31.3203 125.109 32.5 122.711 32.5ZM119.859 22.4688V26.0859H121.969C123.633 26.0859 124.539 25.4219 124.539 24.2031C124.539 23.0859 123.773 22.4688 122.406 22.4688H119.859ZM119.859 31.2578H122.5C124.195 31.2578 125.086 30.5703 125.086 29.2656C125.086 27.9609 124.164 27.2969 122.367 27.2969H119.859V31.2578ZM131.438 32.6406C129.188 32.6406 127.672 31.0234 127.672 28.4375C127.672 25.8438 129.188 24.2344 131.438 24.2344C133.68 24.2344 135.195 25.8438 135.195 28.4375C135.195 31.0234 133.68 32.6406 131.438 32.6406ZM131.438 31.4453C132.875 31.4453 133.812 30.3516 133.812 28.4375C133.812 26.5234 132.875 25.4297 131.438 25.4297C130 25.4297 129.055 26.5234 129.055 28.4375C129.055 30.3516 130 31.4453 131.438 31.4453ZM138.047 32.5H136.703V24.375H138.047V30.4219H138.109L142.172 24.375H143.516V32.5H142.172V26.4531H142.109L138.047 32.5ZM137.742 20.8594H138.742C138.742 21.7656 139.328 22.4766 140.258 22.4766C141.188 22.4766 141.773 21.7656 141.773 20.8594H142.773C142.773 22.2969 141.75 23.2812 140.258 23.2812C138.766 23.2812 137.742 22.2969 137.742 20.8594ZM151.367 24.375V25.4922H148.742V32.5H147.398V25.4922H144.773V24.375H151.367ZM153.969 32.5H152.625V24.375H153.969V30.4219H154.031L158.094 24.375H159.438V32.5H158.094V26.4531H158.031L153.969 32.5ZM170.82 32.5H169.477V28.9922H169.359C168.922 29.3672 168.273 29.625 167.391 29.625C165.445 29.625 164.422 28.4453 164.422 26.7109V24.375H165.766V26.6953C165.766 27.7578 166.336 28.4375 167.43 28.4375C168.438 28.4375 169.102 28.0625 169.477 27.6406V24.375H170.82V32.5ZM176 25.4141C174.727 25.4141 173.836 26.3906 173.75 27.7422H178.164C178.133 26.3828 177.281 25.4141 176 25.4141ZM178.133 30.1719H179.469C179.234 31.5938 177.859 32.6406 176.086 32.6406C173.758 32.6406 172.344 31.0234 172.344 28.4688C172.344 25.9453 173.781 24.2344 176.023 24.2344C178.219 24.2344 179.57 25.8281 179.57 28.2891V28.8047H173.742V28.8828C173.742 30.4375 174.656 31.4609 176.117 31.4609C177.148 31.4609 177.906 30.9375 178.133 30.1719ZM185.031 24.2344C187.102 24.2344 188.508 25.8906 188.508 28.4375C188.508 30.9844 187.109 32.6406 185.062 32.6406C183.898 32.6406 182.961 32.0703 182.477 31.1797H182.445V35.2109H181.086V24.375H182.375V25.75H182.406C182.906 24.8359 183.852 24.2344 185.031 24.2344ZM184.766 31.4453C186.211 31.4453 187.117 30.2812 187.117 28.4375C187.117 26.6016 186.211 25.4297 184.766 25.4297C183.375 25.4297 182.438 26.6328 182.438 28.4375C182.438 30.25 183.375 31.4453 184.766 31.4453ZM193.281 25.4141C192.008 25.4141 191.117 26.3906 191.031 27.7422H195.445C195.414 26.3828 194.562 25.4141 193.281 25.4141ZM195.414 30.1719H196.75C196.516 31.5938 195.141 32.6406 193.367 32.6406C191.039 32.6406 189.625 31.0234 189.625 28.4688C189.625 25.9453 191.062 24.2344 193.305 24.2344C195.5 24.2344 196.852 25.8281 196.852 28.2891V28.8047H191.023V28.8828C191.023 30.4375 191.938 31.4609 193.398 31.4609C194.43 31.4609 195.188 30.9375 195.414 30.1719ZM201.07 32.6406C199.289 32.6406 198 31.7656 197.859 30.3906H199.234C199.391 31.1016 200.062 31.5156 201.07 31.5156C202.25 31.5156 202.906 30.9531 202.906 30.1641C202.906 29.25 202.297 28.8359 201.07 28.8359H199.852V27.7266H201.07C202.102 27.7266 202.633 27.3359 202.633 26.5391C202.633 25.8594 202.148 25.3672 201.102 25.3672C200.141 25.3672 199.469 25.7812 199.359 26.4297H198.039C198.211 25.0859 199.383 24.2344 201.102 24.2344C202.953 24.2344 203.961 25.125 203.961 26.4297C203.961 27.2578 203.43 27.9922 202.617 28.1797V28.2422C203.688 28.4766 204.242 29.1641 204.242 30.1016C204.242 31.6172 202.977 32.6406 201.07 32.6406ZM213.734 32.5H209.211V21.2266H213.711C215.711 21.2266 217.023 22.3359 217.023 24.0391C217.023 25.2344 216.141 26.3047 215.016 26.4922V26.5547C216.547 26.7266 217.578 27.8125 217.578 29.3125C217.578 31.2969 216.133 32.5 213.734 32.5ZM210.961 22.6562V26.0234H212.922C214.438 26.0234 215.273 25.3984 215.273 24.2812C215.273 23.2344 214.555 22.6562 213.289 22.6562H210.961ZM210.961 31.0703H213.375C214.953 31.0703 215.789 30.4219 215.789 29.2031C215.789 27.9844 214.93 27.3594 213.273 27.3594H210.961V31.0703ZM222.367 28.1406L226.148 32.5H224.031L220.773 28.7109H220.711V32.5H219.031V24.2812H220.711V27.7969H220.773L223.992 24.2812H226.008L222.367 28.1406ZM230.539 32.6562C228.188 32.6562 226.641 31.0391 226.641 28.3906C226.641 25.75 228.195 24.1328 230.539 24.1328C232.883 24.1328 234.438 25.75 234.438 28.3906C234.438 31.0391 232.891 32.6562 230.539 32.6562ZM230.539 31.2656C231.867 31.2656 232.719 30.2188 232.719 28.3906C232.719 26.5703 231.859 25.5234 230.539 25.5234C229.219 25.5234 228.359 26.5703 228.359 28.3906C228.359 30.2188 229.219 31.2656 230.539 31.2656ZM241.289 32.5V28.9219H237.57V32.5H235.891V24.2812H237.57V27.5938H241.289V24.2812H242.969V32.5H241.289ZM251.047 24.2812V25.6172H248.469V32.5H246.789V25.6172H244.211V24.2812H251.047ZM254.898 31.3047C256.078 31.3047 257 30.4922 257 29.4219V28.7734L254.977 28.8984C253.969 28.9688 253.398 29.4141 253.398 30.1172C253.398 30.8359 253.992 31.3047 254.898 31.3047ZM254.43 32.6406C252.82 32.6406 251.695 31.6406 251.695 30.1641C251.695 28.7266 252.797 27.8438 254.75 27.7344L257 27.6016V26.9688C257 26.0547 256.383 25.5078 255.352 25.5078C254.375 25.5078 253.766 25.9766 253.617 26.7109H252.023C252.117 25.2266 253.383 24.1328 255.414 24.1328C257.406 24.1328 258.68 25.1875 258.68 26.8359V32.5H257.062V31.1484H257.023C256.547 32.0625 255.508 32.6406 254.43 32.6406ZM263.789 28.1406L267.57 32.5H265.453L262.195 28.7109H262.133V32.5H260.453V24.2812H262.133V27.7969H262.195L265.414 24.2812H267.43L263.789 28.1406ZM274.688 24.2812V25.6172H272.109V32.5H270.43V25.6172H267.852V24.2812H274.688ZM279.211 25.4922C278.031 25.4922 277.203 26.3906 277.117 27.6328H281.227C281.188 26.375 280.391 25.4922 279.211 25.4922ZM281.219 30.0859H282.82C282.586 31.5859 281.164 32.6562 279.281 32.6562C276.867 32.6562 275.406 31.0234 275.406 28.4297C275.406 25.8516 276.891 24.1328 279.211 24.1328C281.492 24.1328 282.914 25.7422 282.914 28.2344V28.8125H277.109V28.9141C277.109 30.3438 277.969 31.2891 279.32 31.2891C280.281 31.2891 280.992 30.8047 281.219 30.0859Z" fill="white"/>
    </g>
    <defs>
        <filter id="filter0_dd_1_54" x="0" y="0" width="364" height="56" filterUnits="userSpaceOnUse" color-interpolation-filters="sRGB">
            <feFlood flood-opacity="0" result="BackgroundImageFix"/>
            <feColorMatrix in="SourceAlpha" type="matrix" values="0 0 0 0 0 0 0 0 0 0 0 0 0 0 0 0 0 0 127 0" result="hardAlpha"/>
            <feOffset dy="2"/>
            <feGaussianBlur stdDeviation="1.5"/>
            <feColorMatrix type="matrix" values="0 0 0 0 0 0 0 0 0 0 0 0 0 0 0 0 0 0 0.168 0"/>
            <feBlend mode="normal" in2="BackgroundImageFix" result="effect1_dropShadow_1_54"/>
            <feColorMatrix in="SourceAlpha" type="matrix" values="0 0 0 0 0 0 0 0 0 0 0 0 0 0 0 0 0 0 127 0" result="hardAlpha"/>
            <feOffset/>
            <feGaussianBlur stdDeviation="1.5"/>
            <feColorMatrix type="matrix" values="0 0 0 0 0 0 0 0 0 0 0 0 0 0 0 0 0 0 0.084 0"/>
            <feBlend mode="normal" in2="effect1_dropShadow_1_54" result="effect2_dropShadow_1_54"/>
            <feBlend mode="normal" in="SourceGraphic" in2="effect2_dropShadow_1_54" result="shape"/>
        </filter>
    </defs>
</svg>
